<?xml version="1.0" encoding="utf-8"?>
<!-- Generator: Adobe Illustrator 21.0.0, SVG Export Plug-In . SVG Version: 6.00 Build 0)  -->
<svg version="1.1" id="Layer_1" xmlns="http://www.w3.org/2000/svg" xmlns:xlink="http://www.w3.org/1999/xlink" x="0px" y="0px"
	 viewBox="0 0 5292.6 2657.8" style="enable-background:new 0 0 5292.6 2657.8;" xml:space="preserve">
<style type="text/css">
	.st0{fill:#F1FFE7;}
	.st1{clip-path:url(#SVGID_2_);}
	.st2{fill:#DD8F3A;}
	.st3{fill:#F1FFE7;stroke:#12263A;stroke-miterlimit:10;}
	.st4{font-family:'CabinSketch-Bold';}
	.st5{font-size:471.5808px;}
	.st6{font-family:'Chalkboard';}
	.st7{font-size:145.6213px;}
</style>
<rect x="0.5" class="st0" width="5311.5" height="2655.8"/>
<g>
	<defs>
		<rect id="SVGID_1_" x="0.5" width="5311.5" height="2655.8"/>
	</defs>
	<clipPath id="SVGID_2_">
		<use xlink:href="#SVGID_1_"  style="overflow:visible;"/>
	</clipPath>
	<g class="st1">
		<g id="triangle36_1455_">
			<path class="st2" d="M5548.8-456.3L5032-742l139.4-124.8l378.1,278l0-5.4l-377-277.2c-0.8-0.6-2-0.6-2.7,0.1l-142.9,128
				c-0.5,0.5-0.8,1.2-0.7,1.9c0.1,0.7,0.5,1.3,1.1,1.6l521.5,288.2L5548.8-456.3z"/>
		</g>
		<g id="triangle36_1454_">
			<path class="st2" d="M5546.8-65.5l-510.5-669.1l512.5,283.3l0-4.9l-519.5-287.1c-0.9-0.5-2-0.3-2.7,0.5c-0.7,0.8-0.7,1.9-0.1,2.7
				l520.2,681.8L5546.8-65.5z"/>
		</g>
		<g id="triangle36_1451_">
			<path class="st2" d="M3439.7,3128.9l695.2-313.5l68.1,317.4l4.4,0l-68.9-320.9c-0.1-0.6-0.6-1.2-1.1-1.5c-0.6-0.3-1.3-0.3-1.9,0
				l-706.3,318.5L3439.7,3128.9z"/>
		</g>
		<g id="triangle36_1439_">
			<polygon class="st2" points="5531.2,2991.5 5075.1,3137.2 5089.1,3137.3 5531.2,2996.1 			"/>
		</g>
		<g id="triangle36_1423_">
			<path class="st2" d="M5549.5-594.1l-372-273.5l373.4-12.4l0-4.3l-379.8,12.6c-0.9,0-1.7,0.6-2,1.5c-0.3,0.9,0,1.8,0.8,2.4
				l379.5,279L5549.5-594.1z"/>
		</g>
		<g id="triangle36_1422_">
			<path class="st2" d="M5541.5,963.7l-503.4-29.7l406.7-246.6l97.7,76.1l0-5.5l-96.2-74.9c-0.7-0.5-1.7-0.6-2.4-0.1L5030,934
				c-0.8,0.5-1.2,1.5-1,2.4c0.2,0.9,1,1.6,2,1.6l510.6,30.1L5541.5,963.7z"/>
		</g>
		<g id="triangle36_1420_">
			<path class="st2" d="M1806,3120.5l82.9-141.4l16.7,141.9l4.4,0l-17.5-148.9c-0.1-0.9-0.8-1.7-1.7-1.9c-0.9-0.2-1.8,0.2-2.3,1
				l-87.4,149.1L1806,3120.5z"/>
		</g>
		<g id="triangle36_1419_">
			<polygon class="st2" points="5531.2,2991.5 5075.1,3137.2 5089.1,3137.3 5531.2,2996.1 			"/>
			<path class="st2" d="M5531.3,2968l-478.2-118.8c-1.2-0.3-2.3,0.4-2.6,1.6l-72.4,285.9l4.5,0l71.6-282.8l477.1,118.5L5531.3,2968z
				"/>
		</g>
		<g id="triangle36_1418_">
			<path class="st2" d="M5536.4,1977.4l-261.2,149.9l-197.3-52.7l458.9-175.7l0-4.6L5070,2072.9c-0.9,0.3-1.4,1.2-1.4,2.1
				c0,0.9,0.7,1.7,1.6,2l204.6,54.7c0.2,0,0.4,0.1,0.5,0.1c0.4,0,0.8-0.1,1.1-0.3l259.8-149.1L5536.4,1977.4z"/>
		</g>
		<g id="triangle36_1417_">
			<path class="st2" d="M4207.5,3132.8l-68.1-317.1l263.9,93.6l-114,223.9l4.8,0l114.1-224.2c0.3-0.6,0.3-1.2,0.1-1.8
				c-0.2-0.6-0.7-1-1.3-1.2l-269.9-95.8c-0.7-0.3-1.6-0.1-2.2,0.4c-0.6,0.5-0.9,1.3-0.7,2.1l68.7,320L4207.5,3132.8z"/>
		</g>
		<g id="triangle36_1416_">
			<path class="st2" d="M4294.1,3133.2l112.4-220.8l139.8,222.1l5.1,0l-143.3-227.6c-0.4-0.7-1.2-1.1-1.9-1c-0.8,0-1.5,0.5-1.8,1.2
				l-115.1,226.1L4294.1,3133.2z"/>
		</g>
		<g id="triangle36_1415_">
			<path class="st2" d="M4546.4,3134.5l5.1,0l-139.4-221.4l476.4,223.1l10.3,0.1l-491.6-230.2c-0.9-0.4-1.9-0.2-2.5,0.5
				c-0.6,0.7-0.7,1.8-0.2,2.6L4546.4,3134.5z"/>
		</g>
		<g id="triangle36_1414_">
			<path class="st2" d="M4405.4,2910.1l483.1,226.2l10.3,0.1l-484.3-226.8l635.2-55.8l-71.6,283l4.5,0l72.1-284.9
				c0.2-0.7,0-1.4-0.5-1.9s-1.2-0.8-1.8-0.8l-646.3,56.8c-1,0.1-1.8,0.8-1.9,1.8C4404,2908.7,4404.5,2909.6,4405.4,2910.1z"/>
		</g>
		<g id="triangle36_1412_">
			<path class="st2" d="M1910,3121.1l-17-144.3l224.7,145.3l8,0l-234.3-151.5c-0.7-0.5-1.6-0.5-2.3,0c-0.7,0.4-1.1,1.3-1,2.1
				l17.5,148.3L1910,3121.1z"/>
		</g>
		<g id="triangle36_1411_">
			<path class="st2" d="M3345.5,1662.9c-0.4,0-0.7-0.1-1.1-0.3c-0.5-0.3-0.9-0.8-1-1.4l-22.2-107.4c-0.1-0.6,0-1.2,0.4-1.7
				c0.4-0.5,0.9-0.8,1.5-0.9l549.6-63.7c1.2-0.2,2.1,0.6,2.4,1.7c0.2,1.1-0.4,2.2-1.4,2.5l-527.3,171
				C3346,1662.9,3345.7,1662.9,3345.5,1662.9z M3325.9,1555.3l21.2,102.7l504.4-163.6L3325.9,1555.3z"/>
		</g>
		<g id="triangle36_1409_">
			<path class="st2" d="M1602.8,3119.5l28.3-309.8l256.2,163.5l-86.4,147.3l5,0l86.2-147c0.6-1,0.3-2.3-0.7-2.9l-261-166.5
				c-0.6-0.4-1.4-0.4-2.1-0.1c-0.7,0.3-1.1,1-1.2,1.7l-28.7,313.7L1602.8,3119.5z"/>
		</g>
		<g id="triangle36_1408_">
			<path class="st2" d="M1890.3,2974.6c-0.4,0-0.8-0.1-1.2-0.3l-261-166.5c-0.6-0.4-1-1.1-1-1.8c0-0.7,0.3-1.4,0.9-1.8l445.5-313
				c0.8-0.5,1.8-0.5,2.6,0.1c0.7,0.6,1,1.6,0.7,2.5l-184.6,479.5c-0.2,0.6-0.7,1.1-1.3,1.3
				C1890.8,2974.6,1890.5,2974.6,1890.3,2974.6z M1633.2,2805.9l256,163.3l181.1-470.4L1633.2,2805.9z"/>
		</g>
		<g id="triangle36_1407_">
			<path class="st2" d="M2681.4,2987.3C2681.4,2987.3,2681.4,2987.3,2681.4,2987.3l-791.1-12.6c-0.7,0-1.4-0.4-1.8-1
				c-0.4-0.6-0.5-1.3-0.2-2l184.6-479.5c0.2-0.7,0.8-1.1,1.5-1.3c0.7-0.2,1.4,0,1.9,0.4l606.5,492.1c0.7,0.6,1,1.6,0.7,2.4
				C2683.1,2986.7,2682.3,2987.3,2681.4,2987.3z M1893.5,2970.4l781.7,12.5l-599.3-486.3L1893.5,2970.4z"/>
		</g>
		<g id="triangle36_1406_">
			<path class="st2" d="M2117.8,3122.1l8,0l-227.9-147.4l775.4,12.4l-247.9,136.6l8.9,0l248.3-136.8c0.9-0.5,1.3-1.5,1.1-2.4
				c-0.2-1-1.1-1.6-2.1-1.6l-791.1-12.6h0c-1,0-1.8,0.6-2.1,1.5c-0.3,0.9,0.1,1.9,0.9,2.4L2117.8,3122.1z"/>
		</g>
		<g id="triangle36_1405_">
			<path class="st2" d="M2434.2,3123.7l241.1-132.8l-82.1,133.6l5.1,0l85-138.4c0.5-0.8,0.4-1.9-0.3-2.6c-0.7-0.7-1.8-0.9-2.6-0.4
				l-255.1,140.5L2434.2,3123.7z"/>
		</g>
		<g id="triangle36_1404_">
			<path class="st2" d="M2598.2,3124.6l84.1-137l479.1,139.8l15.7,0.1L2682,2983c-0.9-0.3-1.9,0.1-2.5,0.9l-86.4,140.6
				L2598.2,3124.6z"/>
		</g>
		<g id="triangle36_1382_">
			<path class="st2" d="M4787.3,1859c-0.3,0-0.5-0.1-0.8-0.2l-914.5-367.2c-0.7-0.3-1.2-0.9-1.3-1.7c-0.1-0.8,0.2-1.5,0.8-2
				l463-381.6c0.5-0.4,1.1-0.6,1.7-0.5c0.6,0.1,1.2,0.5,1.5,1l451.5,748.7c0.5,0.8,0.4,1.8-0.2,2.5
				C4788.6,1858.8,4788,1859.1,4787.3,1859z M3877.1,1489.1l905.1,363.4l-446.9-741.1L3877.1,1489.1z"/>
		</g>
		<g id="triangle36_1381_">
			<path class="st2" d="M4787.3,1859c-0.7,0-1.4-0.4-1.8-1L4334,1109.3c-0.3-0.5-0.4-1.2-0.2-1.8c0.2-0.6,0.6-1.1,1.2-1.3
				l379.4-169.7c0.6-0.3,1.4-0.2,2,0.1c0.6,0.4,1,1,1.1,1.7l72.1,918.4c0.1,1-0.5,1.9-1.5,2.2C4787.8,1859,4787.6,1859,4787.3,1859z
				 M4339,1109.1l445.5,738.8l-71.2-906.2L4339,1109.1z"/>
		</g>
		<g id="triangle36_1380_">
			<path class="st2" d="M4787.3,1859c-0.1,0-0.1,0-0.2,0c-1.1-0.1-1.9-0.9-2-2L4713,938.7c0-0.6,0.2-1.2,0.6-1.6
				c0.4-0.4,1-0.7,1.6-0.7l315.9-2.7c0.5,0.1,1.3,0.3,1.7,0.8c0.4,0.5,0.6,1.2,0.4,1.9l-243.7,921.1
				C4789.2,1858.4,4788.3,1859.1,4787.3,1859z M4717.5,940.6l71,903.4l239.8-906L4717.5,940.6z"/>
		</g>
		<g id="triangle36_1379_">
			<path class="st2" d="M5536.8,1894.2l-465.6,178.3l-278.2-214.1l744.4-79.8l0-4.4l-750.3,80.4c-0.9,0.1-1.6,0.7-1.9,1.6
				c-0.2,0.8,0.1,1.8,0.8,2.3l283.5,218.1c0.4,0.3,0.8,0.4,1.3,0.4c0.3,0,0.5,0,0.8-0.1l465.2-178.1L5536.8,1894.2z"/>
		</g>
		<g id="triangle36_1378_">
			<path class="st2" d="M4715.2,940.7c-0.9,0-1.7-0.5-2-1.3c-0.3-0.8-0.1-1.8,0.5-2.4l314.6-300.8c0.6-0.6,1.6-0.8,2.3-0.4
				c0.8,0.3,1.3,1.1,1.3,2l1.3,298.2c0,1.2-1,2.2-2.1,2.2L4715.2,940.7C4715.2,940.7,4715.2,940.7,4715.2,940.7z M5027.6,642.7
				l-307,293.6l308.3-2.6L5027.6,642.7z"/>
		</g>
		<g id="triangle36_1377_">
			<path class="st2" d="M5544.5,386.1l-512.6,248.1l-1.5-1369.3l516.3,676.7l0-7.1L5030-742.8c-0.6-0.7-1.5-1-2.4-0.7
				c-0.9,0.3-1.5,1.1-1.5,2.1l1.5,1379.2c0,0.7,0.4,1.4,1,1.8c0.3,0.2,0.7,0.3,1.1,0.3c0.3,0,0.7-0.1,1-0.2l513.7-248.7
				L5544.5,386.1z"/>
		</g>
		<g id="triangle36_1376_">
			<path class="st2" d="M5031.1,938c-0.4,0-0.7-0.1-1-0.3c-0.7-0.4-1.1-1.1-1.1-1.9l-1.3-298.2c0-0.6,0.3-1.2,0.7-1.6
				c0.5-0.4,1.1-0.6,1.7-0.5l415.2,47.2c0.9,0.1,1.7,0.8,1.9,1.7c0.2,0.9-0.2,1.8-1,2.3l-413.9,251
				C5031.9,937.9,5031.5,938,5031.1,938z M5031.9,640.1l1.3,291.9l405.2-245.7L5031.9,640.1z"/>
		</g>
		<g id="triangle36_1375_">
			<path class="st2" d="M5543.6,564.3l-99.5,118.2l-406.7-46.2l507-245.4l0-4.8l-515.7,249.6c-0.9,0.4-1.4,1.4-1.2,2.3
				c0.2,0.9,0.9,1.7,1.9,1.8l415.2,47.2c0.1,0,0.2,0,0.2,0c0.6,0,1.3-0.3,1.7-0.8l96.9-115.1L5543.6,564.3z"/>
		</g>
		<g id="triangle36_1374_">
			<path class="st2" d="M5542.7,731l-94.3-46.9l95.1-113l0-6.8l-100.2,119.1c-0.4,0.5-0.6,1.2-0.5,1.8c0.1,0.6,0.6,1.2,1.2,1.5
				l98.7,49.1L5542.7,731z"/>
		</g>
		<g id="triangle36_1373_">
			<path class="st2" d="M5542.6,758.1l-79.2-61.7l79.4,39.5l0-4.8l-96.7-48.1c-1-0.5-2.2-0.2-2.8,0.8c-0.6,0.9-0.4,2.2,0.5,2.9
				l98.9,77L5542.6,758.1z"/>
		</g>
		<g id="triangle36_1366_">
			<path class="st2" d="M2680.8,2987.2l480.7,140.3l15.7,0.1l-490-143l869.1-447.4l-210,591.3l4.6,0l211.3-595
				c0.3-0.8,0.1-1.8-0.6-2.4c-0.7-0.6-1.6-0.7-2.4-0.3l-878.8,452.4c-0.8,0.4-1.2,1.2-1.2,2.1
				C2679.3,2986.2,2679.9,2986.9,2680.8,2987.2z"/>
		</g>
		<g id="triangle36_1365_">
			<path class="st2" d="M3351,3128.4l210.5-592.7l569.9,276.6l-702.1,316.6l10.4,0.1l697.7-314.6c0.8-0.3,1.3-1.1,1.3-1.9
				c0-0.8-0.5-1.6-1.2-2l-576.3-279.6c-0.6-0.3-1.2-0.3-1.8-0.1c-0.6,0.2-1,0.7-1.2,1.3l-211.8,596.4L3351,3128.4z"/>
		</g>
		<g id="triangle36_1363_">
			<path class="st2" d="M3597.8,1853c-0.5,0-0.9-0.2-1.3-0.4l-252.3-190c-0.9-0.6-1.1-1.8-0.6-2.8c0.5-0.9,1.7-1.4,2.6-1
				l400.5,145.8c0.9,0.3,1.4,1.2,1.4,2.1c0,0.9-0.7,1.7-1.5,2l-148.2,44.3C3598.2,1853,3598,1853,3597.8,1853z M3358.4,1667.8
				l239.9,180.7l140.9-42.1L3358.4,1667.8z"/>
		</g>
		<g id="triangle36_1362_">
			<path class="st2" d="M3746,1808.7c-0.2,0-0.5,0-0.7-0.1l-400.5-145.8c-0.9-0.3-1.4-1.1-1.4-2.1c0-0.9,0.6-1.7,1.5-2l527.3-171
				c0.8-0.3,1.7,0,2.2,0.6c0.6,0.6,0.7,1.5,0.4,2.3l-126.8,316.8C3747.7,1808.2,3746.9,1808.7,3746,1808.7z M3352.2,1660.9
				l392.6,142.9l124.3-310.6L3352.2,1660.9z"/>
		</g>
		<g id="triangle36_1361_">
			<path class="st2" d="M3560.2,2534.9c-0.1,0-0.2,0-0.3,0c-1.1-0.2-1.9-1.1-1.8-2.3l37.6-681.9c0-0.9,0.7-1.7,1.5-2l148.2-44.3
				c0.7-0.2,1.6,0,2.1,0.5c0.6,0.5,0.8,1.3,0.6,2.1l-185.8,726.2C3562.1,2534.2,3561.2,2534.9,3560.2,2534.9z M3599.9,1852.5
				l-36.3,658.3l179.4-701.1L3599.9,1852.5z"/>
		</g>
		<g id="triangle36_1360_">
			<path class="st2" d="M4787.3,1859C4787.3,1859,4787.3,1859,4787.3,1859l-1041.4-50.4c-0.7,0-1.3-0.4-1.7-1
				c-0.4-0.6-0.4-1.3-0.2-2l126.8-316.8c0.2-0.5,0.6-1,1.2-1.2c0.5-0.2,1.1-0.2,1.7,0l914.5,367.2c1,0.4,1.5,1.4,1.3,2.5
				C4789.2,1858.3,4788.4,1859.1,4787.3,1859z M3749.2,1804.5l1025.4,49.6l-900.5-361.6L3749.2,1804.5z"/>
		</g>
		<g id="triangle36_1359_">
			<path class="st2" d="M3872.9,1491.9c-0.3,0-0.5,0-0.8-0.2c-0.7-0.3-1.3-1-1.3-1.7L3764,663.7c-0.1-0.9,0.3-1.7,1.1-2.2
				c0.8-0.4,1.7-0.4,2.4,0.2l569.7,444.8c0.5,0.4,0.8,1,0.8,1.7c0,0.7-0.3,1.3-0.8,1.7l-463,381.6
				C3873.9,1491.7,3873.4,1491.9,3872.9,1491.9z M3768.9,668.3l105.6,817.2l457.9-377.4L3768.9,668.3z"/>
		</g>
		<g id="triangle36_1358_">
			<path class="st2" d="M4335.8,1110.3c-0.5,0-0.9-0.2-1.3-0.5l-569.7-444.8c-0.6-0.5-0.9-1.2-0.8-2c0.1-0.8,0.6-1.4,1.3-1.7
				l496.3-222.7c0.6-0.3,1.4-0.2,2,0.1c0.6,0.3,1,1,1.1,1.6l73.4,667.4c0.1,0.9-0.3,1.7-1.1,2.1
				C4336.6,1110.2,4336.2,1110.3,4335.8,1110.3z M3770.3,663.9l562.9,439.4l-72.5-659.4L3770.3,663.9z"/>
		</g>
		<g id="triangle36_1357_">
			<path class="st2" d="M4262.4,442.9c-0.1,0-0.2,0-0.4,0c-0.9-0.1-1.5-0.8-1.7-1.6l-236.9-983.6c-0.1-0.6,0-1.2,0.3-1.7
				c0.3-0.5,0.8-0.8,1.4-1l1002.7-198.6c0.8-0.2,1.7,0.2,2.2,0.9c0.5,0.7,0.5,1.7,0,2.4L4264.2,441.9
				C4263.8,442.5,4263.1,442.9,4262.4,442.9z M4028.2-541.2l235.2,976.5l760.3-1173.7L4028.2-541.2z"/>
		</g>
		<g id="triangle36_1356_">
			<path class="st2" d="M4335.8,1110.3c-0.4,0-0.7-0.1-1.1-0.3c-0.6-0.3-1-1-1.1-1.6l-73.4-667.4c-0.1-0.9,0.4-1.8,1.3-2.2
				c0.8-0.4,1.9-0.2,2.5,0.5L4716.8,937c0.5,0.5,0.7,1.2,0.5,1.9c-0.1,0.7-0.6,1.3-1.2,1.5l-379.4,169.7
				C4336.4,1110.2,4336.1,1110.3,4335.8,1110.3z M4265.3,447.1l72.4,657.9l373.9-167.2L4265.3,447.1z"/>
		</g>
		<g id="triangle36_1355_">
			<path class="st2" d="M4715.2,940.7C4715.2,940.7,4715.1,940.7,4715.2,940.7c-0.6,0-1.2-0.3-1.6-0.7l-452.8-497.8
				c-0.6-0.7-0.7-1.7-0.3-2.6c0.5-0.8,1.5-1.2,2.4-1l767.4,197c0.8,0.2,1.4,0.8,1.6,1.6c0.2,0.8,0,1.6-0.6,2.1l-314.6,300.8
				C4716.3,940.4,4715.8,940.7,4715.2,940.7z M4268.9,444.6l446.4,490.8l310.2-296.6L4268.9,444.6z"/>
		</g>
		<g id="triangle36_1353_">
			<path class="st2" d="M5029.8,639.8c-0.2,0-0.4,0-0.5-0.1l-767.4-197c-0.7-0.2-1.2-0.7-1.5-1.3c-0.3-0.6-0.2-1.4,0.2-2
				l765.9-1182.2c0.5-0.8,1.5-1.2,2.4-0.9c0.9,0.3,1.6,1.1,1.6,2.1l1.5,1379.2c0,0.7-0.3,1.3-0.8,1.7
				C5030.7,639.7,5030.2,639.8,5029.8,639.8z M4265.9,439.4l761.7,195.5l-1.5-1369.1L4265.9,439.4z"/>
		</g>
		<g id="triangle36_1343_">
			<path class="st2" d="M3560.2,2534.9c-0.6,0-1.2-0.2-1.6-0.7c-0.5-0.5-0.7-1.3-0.5-2l185.8-726.2c0.2-0.7,0.7-1.2,1.3-1.5
				c0.7-0.2,1.4-0.2,2,0.2l788.4,544.5c0.7,0.5,1.1,1.4,0.9,2.2c-0.2,0.9-0.9,1.5-1.7,1.7l-974.2,181.6
				C3560.5,2534.9,3560.3,2534.9,3560.2,2534.9z M3747.4,1810.1L3563.1,2530l965.7-180.1L3747.4,1810.1z"/>
		</g>
		<g id="triangle36_1342_">
			<path class="st2" d="M4136.5,2814.5c-0.3,0-0.6-0.1-0.9-0.2l-576.3-279.6c-0.8-0.4-1.3-1.3-1.2-2.2c0.1-0.9,0.8-1.7,1.8-1.8
				l974.2-181.6c0.9-0.2,1.8,0.3,2.3,1.1c0.5,0.8,0.4,1.8-0.2,2.5l-397.9,461.3C4137.7,2814.2,4137.1,2814.5,4136.5,2814.5z
				 M3567.1,2533.6l568.9,276l392.8-455.3L3567.1,2533.6z"/>
		</g>
		<g id="triangle36_1341_">
			<path class="st2" d="M4534.4,2353.2c-0.4,0-0.9-0.1-1.2-0.4l-788.4-544.5c-0.8-0.5-1.1-1.6-0.8-2.5c0.3-0.9,1.2-1.5,2.2-1.5
				l1041.3,50.4c0.7,0,1.4,0.4,1.8,1.1c0.4,0.6,0.4,1.4,0.1,2.1l-253,494.2c-0.3,0.6-0.8,1-1.4,1.1
				C4534.7,2353.2,4534.6,2353.2,4534.4,2353.2z M3753.5,1809.1l780.1,538.8l250.3-489L3753.5,1809.1z"/>
		</g>
		<g id="triangle36_1340_">
			<path class="st2" d="M4406.3,2910.3c-0.2,0-0.5,0-0.7-0.1l-269.9-95.8c-0.7-0.2-1.2-0.8-1.4-1.5c-0.2-0.7,0-1.4,0.5-2
				l397.9-461.3c0.6-0.8,1.7-1,2.6-0.5c0.9,0.4,1.4,1.4,1.1,2.4l-128.1,557c-0.1,0.6-0.5,1.1-1.1,1.4
				C4407.1,2910.2,4406.7,2910.3,4406.3,2910.3z M4140.2,2811.4l264.6,93.9l125.6-546.1L4140.2,2811.4z"/>
		</g>
		<g id="triangle36_1339_">
			<path class="st2" d="M4406.3,2910.3c-0.6,0-1.2-0.3-1.6-0.7c-0.5-0.5-0.6-1.2-0.5-1.9l128.1-557c0.2-0.8,0.7-1.4,1.5-1.6
				c0.7-0.2,1.6,0,2.1,0.5l518.2,500.3c0.6,0.6,0.8,1.5,0.5,2.3c-0.3,0.8-1,1.4-1.9,1.4l-646.3,56.8
				C4406.5,2910.3,4406.4,2910.3,4406.3,2910.3z M4535.6,2355.3l-126.5,550.4l638.6-56.1L4535.6,2355.3z"/>
		</g>
		<g id="triangle36_1338_">
			<path class="st2" d="M4534.4,2353.2c-0.6,0-1.1-0.2-1.5-0.6c-0.7-0.7-0.8-1.7-0.4-2.5l253-494.2c0.3-0.6,0.8-1,1.5-1.1
				c0.6-0.1,1.3,0,1.8,0.4l283.5,218.1c0.6,0.5,0.9,1.2,0.8,1.9c-0.1,0.7-0.5,1.4-1.2,1.7L4535.4,2353
				C4535.1,2353.2,4534.7,2353.2,4534.4,2353.2z M4788.1,1860.2l-248.7,485.9l527.4-271.5L4788.1,1860.2z"/>
		</g>
		<g id="triangle36_1337_">
			<path class="st2" d="M5052.6,2853.5c-0.5,0-1.1-0.2-1.5-0.6l-518.2-500.3c-0.6-0.5-0.8-1.3-0.6-2.1c0.2-0.7,0.7-1.3,1.5-1.6
				l741-221.4c0.8-0.2,1.6,0,2.2,0.6c0.6,0.6,0.8,1.4,0.5,2.2L5054.7,2852c-0.2,0.7-0.8,1.3-1.5,1.5
				C5053,2853.5,5052.8,2853.5,5052.6,2853.5z M4538.6,2352.1l513,495.3l220.6-714.5L4538.6,2352.1z"/>
		</g>
		<g id="triangle36_1336_">
			<path class="st2" d="M4534.4,2353.2c-0.9,0-1.7-0.5-2-1.4c-0.4-1,0-2.2,1-2.7l536.4-276.1c0.5-0.2,1-0.3,1.6-0.2l204.6,54.7
				c0.9,0.2,1.6,1.1,1.6,2.1c0,1-0.6,1.8-1.5,2.1l-741,221.4C4534.8,2353.2,4534.6,2353.2,4534.4,2353.2z M5071.1,2077.3l-514.9,265
				l711.4-212.6L5071.1,2077.3z"/>
		</g>
		<g id="triangle36_1324_">
			<path class="st2" d="M1334.3,2628.6c-0.9,0-1.7-0.6-2-1.4c-0.4-1,0-2.1,0.9-2.6l613.7-359.4c0.5-0.3,1.1-0.4,1.7-0.2
				c0.6,0.2,1,0.5,1.3,1l126.9,225.9c0.3,0.6,0.4,1.3,0.1,2c-0.3,0.6-0.9,1.1-1.6,1.2l-740.6,133.5
				C1334.6,2628.6,1334.4,2628.6,1334.3,2628.6z M1947.2,2270.1l-601.3,352.1l725.6-130.8L1947.2,2270.1z"/>
		</g>
		<g id="triangle36_1322_">
			<path class="st2" d="M2074.9,2495.1c-0.1,0-0.1,0-0.2,0c-0.7-0.1-1.3-0.5-1.7-1.1l-126.9-225.9c-0.3-0.6-0.4-1.3-0.1-2
				c0.3-0.6,0.9-1.1,1.5-1.2l378.9-75.3c0.9-0.2,1.8,0.2,2.3,1c0.5,0.8,0.4,1.8-0.2,2.5l-252,301.1
				C2076.1,2494.8,2075.5,2495.1,2074.9,2495.1z M1951.3,2268.6l123.9,220.5l246-294L1951.3,2268.6z"/>
		</g>
		<g id="triangle36_1462_">
			<path class="st2" d="M3147,973.4c-0.2,0-0.4,0-0.5-0.1c-1.2-0.3-1.9-1.5-1.6-2.6l119-458.4c0.3-1.2,1.5-1.9,2.6-1.6
				c1.2,0.3,1.9,1.5,1.6,2.6l-119,458.4C3148.8,972.8,3148,973.4,3147,973.4z"/>
		</g>
		<g id="triangle36_1316_">
			<path class="st2" d="M3147,973.4c-0.5,0-1-0.2-1.4-0.5c-0.7-0.5-0.9-1.4-0.7-2.2l119-458.4c0.1-0.6,0.5-1.1,1-1.3
				c0.5-0.3,1.1-0.3,1.7-0.2l500.1,150.6c0.8,0.3,1.5,1,1.5,1.9c0.1,0.9-0.4,1.7-1.2,2.1L3148,973.2
				C3147.7,973.3,3147.3,973.4,3147,973.4z M3267.5,515.6l-117.3,451.6l610-303.3L3267.5,515.6z"/>
		</g>
		<g id="triangle36_1315_">
			<path class="st2" d="M3323.3,1555.6c-0.9,0-1.8-0.6-2.1-1.5l-176.3-582.2c-0.3-0.9,0.1-1.8,0.8-2.4c0.8-0.5,1.8-0.5,2.5,0
				l725.9,518.5c0.7,0.5,1.1,1.4,0.8,2.3c-0.2,0.9-1,1.5-1.8,1.6l-549.6,63.7C3323.5,1555.6,3323.4,1555.6,3323.3,1555.6z
				 M3150.9,976.7l174,574.4l542.2-62.8L3150.9,976.7z"/>
		</g>
		<g id="triangle36_1314_">
			<path class="st2" d="M3872.9,1491.9c-0.4,0-0.9-0.1-1.2-0.4L3145.7,973c-0.6-0.4-1-1.2-0.9-1.9c0.1-0.8,0.5-1.4,1.2-1.8
				l619.1-307.9c0.6-0.3,1.4-0.3,2,0c0.6,0.3,1,0.9,1.1,1.6l106.8,826.3c0.1,0.9-0.3,1.7-1,2.1
				C3873.6,1491.8,3873.3,1491.9,3872.9,1491.9z M3151.2,971.6l718.9,513.5l-105.7-818.4L3151.2,971.6z"/>
		</g>
		<g id="triangle36_1165_">
			<path class="st2" d="M2945.6,1963.3c-0.6,0-1.2-0.2-1.6-0.7c-0.8-0.8-0.7-2.1,0-2.9l377.7-407.8c0.6-0.6,1.4-0.8,2.2-0.6
				c0.8,0.2,1.4,0.9,1.5,1.6l22.2,107.4c0.2,0.8-0.1,1.7-0.8,2.2l-399.9,300.4C2946.5,1963.2,2946,1963.3,2945.6,1963.3z M3322,1558
				l-358.5,387l379.6-285.1L3322,1558z"/>
		</g>
		<g id="triangle36_1164_">
			<path class="st2" d="M2945.6,1963.3c-0.9,0-1.6-0.5-2-1.3c-0.4-0.9-0.1-2,0.7-2.6l399.9-300.4c0.8-0.6,1.8-0.6,2.6,0l252.3,190
				c0.7,0.5,1,1.4,0.8,2.2s-0.9,1.5-1.7,1.6l-652.3,110.4C2945.8,1963.3,2945.7,1963.3,2945.6,1963.3z M3345.5,1663.5L2954,1957.5
				l638.5-108L3345.5,1663.5z"/>
		</g>
		<g id="triangle36_1160_">
			<path class="st2" d="M3560.2,2534.9c-0.5,0-1.1-0.2-1.5-0.6l-614.6-571.5c-0.6-0.6-0.8-1.4-0.6-2.2c0.2-0.8,0.9-1.4,1.7-1.5
				l652.3-110.4c0.6-0.1,1.3,0.1,1.8,0.5c0.5,0.4,0.8,1.1,0.7,1.7l-37.6,681.9c0,0.8-0.6,1.6-1.3,1.9
				C3560.7,2534.8,3560.5,2534.9,3560.2,2534.9z M2950.3,1962.6l608,565.4l37.2-674.6L2950.3,1962.6z"/>
		</g>
		<g id="triangle36_1159_">
			<path class="st2" d="M5539.4,1381l-748.6,471.2l241.7-913.4l508,214.6l0-4.7l-508.7-214.9c-0.6-0.2-1.2-0.2-1.8,0.1
				c-0.6,0.3-1,0.8-1.1,1.4l-243.7,921.1c-0.2,0.9,0.1,1.8,0.8,2.3c0.4,0.3,0.8,0.4,1.3,0.4c0.4,0,0.8-0.1,1.2-0.3l750.9-472.6
				L5539.4,1381z"/>
		</g>
		<g id="triangle36_1158_">
			<path class="st2" d="M5537.4,1774.3l-741,79.4l743-467.6l0-5.1l-753.2,474.1c-0.9,0.5-1.2,1.6-0.9,2.5c0.3,0.9,1.1,1.5,2,1.5
				c0.1,0,0.2,0,0.2,0l749.8-80.4L5537.4,1774.3z"/>
		</g>
		<g id="triangle36_1153_">
			<path class="st2" d="M5540.6,1148.7l-497.1-210l498,29.4l0-4.3l-510.3-30.1c-1.2-0.1-2,0.6-2.2,1.7c-0.2,1,0.3,2.1,1.3,2.5
				l510.3,215.6L5540.6,1148.7z"/>
		</g>
		<g id="triangle36_1145_">
			<path class="st2" d="M2074.9,2495.1c-0.7,0-1.3-0.3-1.7-0.9c-0.6-0.8-0.5-1.9,0.1-2.7l252-301.1c0.4-0.5,1-0.8,1.7-0.8l498-1.7
				c0,0,0,0,0,0c1,0,1.9,0.7,2.1,1.7c0.2,1-0.4,2-1.3,2.4l-750,302.9C2075.4,2495.1,2075.2,2495.1,2074.9,2495.1z M2327.9,2194
				l-245.8,293.7l731.5-295.4L2327.9,2194z"/>
		</g>
		<g id="triangle36_1144_">
			<path class="st2" d="M2681.4,2987.3c-0.5,0-1-0.2-1.4-0.5l-606.5-492.1c-0.6-0.5-0.9-1.2-0.8-2c0.1-0.8,0.6-1.4,1.3-1.7
				l750-302.9c0.7-0.3,1.6-0.2,2.2,0.3c0.6,0.5,0.9,1.3,0.8,2.1l-143.5,795c-0.1,0.8-0.7,1.4-1.4,1.6
				C2681.9,2987.2,2681.6,2987.3,2681.4,2987.3z M2079.1,2493.6l600.8,487.5l142.2-787.6L2079.1,2493.6z"/>
		</g>
		<g id="triangle36_1142_">
			<path class="st2" d="M2326.9,2194c-1,0-1.9-0.7-2.1-1.8c-0.2-1,0.4-2,1.4-2.4l618.7-230.6c0.8-0.3,1.8-0.1,2.4,0.6
				c0.6,0.7,0.7,1.6,0.3,2.4l-120.7,228.9c-0.4,0.7-1.1,1.2-1.9,1.2L2326.9,2194C2326.9,2194,2326.9,2194,2326.9,2194z M2941,1965.2
				l-602,224.4l484.6-1.7L2941,1965.2z"/>
		</g>
		<g id="triangle36_1141_">
			<path class="st2" d="M2681.4,2987.3c-0.5,0-0.9-0.1-1.3-0.4c-0.7-0.5-1-1.3-0.8-2.1l143.5-795c0.1-0.7,0.5-1.2,1.1-1.5
				c0.6-0.3,1.3-0.3,1.9,0l735.3,342.7c0.7,0.3,1.2,1.1,1.2,1.9c0,0.8-0.4,1.6-1.2,2L2682.4,2987
				C2682.1,2987.2,2681.7,2987.3,2681.4,2987.3z M2826.5,2193.2l-142.2,788l871-448.4L2826.5,2193.2z"/>
		</g>
		<g id="triangle36_1140_">
			<path class="st2" d="M3560.2,2534.9c-0.3,0-0.6-0.1-0.9-0.2L2824,2192c-0.5-0.2-0.9-0.7-1.1-1.3c-0.2-0.6-0.1-1.2,0.1-1.7
				l120.7-228.9c0.3-0.6,0.9-1,1.6-1.1c0.6-0.1,1.3,0.1,1.8,0.5l614.6,571.5c0.8,0.7,0.9,1.9,0.3,2.8
				C3561.6,2534.5,3560.9,2534.9,3560.2,2534.9z M2827.9,2189.1l720.8,335.9l-602.5-560.3L2827.9,2189.1z"/>
		</g>
		<g id="triangle36_1139_">
			<path class="st2" d="M5535.1,2224l-254.6-94.8l255.8-146.8l0-5l-262,150.4c-0.7,0.4-1.1,1.2-1.1,2.1c0.1,0.8,0.6,1.6,1.4,1.8
				l260.4,97L5535.1,2224z"/>
		</g>
		<g id="triangle36_1460_">
			<path class="st2" d="M3266,515c-0.7,0-1.4-0.3-1.8-1c-0.7-1-0.4-2.3,0.6-3l499.7-334.2c1-0.7,2.3-0.4,3,0.6c0.7,1,0.4,2.3-0.6,3
				l-499.7,334.2C3266.8,514.9,3266.4,515,3266,515z"/>
		</g>
		<g id="triangle36_1126_">
			<path class="st2" d="M3766.1,665.5c-0.2,0-0.4,0-0.6-0.1l-500.1-150.6c-0.8-0.2-1.4-0.9-1.5-1.8c-0.1-0.8,0.2-1.7,0.9-2.1
				l499.7-334.2c0.7-0.4,1.5-0.5,2.2-0.1c0.7,0.4,1.1,1.1,1.1,1.9l0.4,484.8c0,0.7-0.3,1.3-0.9,1.7
				C3767,665.4,3766.6,665.6,3766.1,665.5z M3271,512.1l492.9,148.4l-0.4-477.8L3271,512.1z"/>
		</g>
		<g id="triangle36_1121_">
			<path class="st2" d="M3766.1,665.5c-0.4,0-0.8-0.1-1.2-0.3c-0.6-0.4-1-1.1-1-1.8l-0.4-484.8c0-0.8,0.4-1.5,1-1.9
				c0.7-0.4,1.5-0.4,2.1-0.1l496.7,262.1c0.7,0.4,1.2,1.2,1.2,2c0,0.8-0.5,1.6-1.3,1.9L3767,665.4
				C3766.7,665.5,3766.4,665.5,3766.1,665.5z M3767.9,182.2l0.4,477.8l489.2-219.5L3767.9,182.2z"/>
		</g>
		<g id="triangle36_1117_">
			<path class="st2" d="M4262.4,442.9c-0.3,0-0.7-0.1-1-0.3l-496.7-262.1c-1-0.5-1.4-1.6-1-2.6l259.8-721.5c0.3-0.9,1.2-1.6,2.2-1.4
				c1,0.1,1.8,0.7,2,1.7l236.9,983.6c0.2,0.8-0.1,1.7-0.8,2.2C4263.4,442.7,4262.9,442.9,4262.4,442.9z M3768.4,177.6l490.8,259
				l-234.1-971.9L3768.4,177.6z"/>
		</g>
		<g id="triangle36_1116_">
			<path class="st2" d="M5533.6,2524l-477.1,322.1l219.8-711.9l257.6,331.5l0-7l-256.8-330.4c-0.5-0.6-1.3-0.9-2.1-0.8
				c-0.8,0.1-1.4,0.7-1.7,1.5l-222.8,721.7c-0.3,0.9,0,1.8,0.8,2.4c0.4,0.3,0.8,0.4,1.3,0.4c0.4,0,0.9-0.1,1.2-0.4l479.7-323.8
				L5533.6,2524z"/>
		</g>
		<g id="triangle36_1115_">
			<path class="st2" d="M5531.3,2968l-473.4-117.6l475.7-321.1l0-5.2l-482.2,325.5c-0.7,0.5-1.1,1.3-0.9,2.2
				c0.2,0.8,0.8,1.5,1.6,1.7l479.2,119L5531.3,2968z"/>
		</g>
		<g id="triangle36_1114_">
			<path class="st2" d="M5533.9,2458.7l-252.1-324.4l253.3,94.3l0-4.6l-258.9-96.4c-0.9-0.3-1.9,0-2.5,0.7c-0.6,0.8-0.6,1.8,0,2.6
				l260.2,334.7L5533.9,2458.7z"/>
		</g>
	</g>
	<g class="st1">
		<g>
			
				<ellipse transform="matrix(5.087797e-03 -1 1 5.087797e-03 6014.3936 4306.0767)" class="st3" cx="5171.2" cy="-869.5" rx="22.6" ry="22.6"/>
			<path class="st3" d="M5171.3-892.1c12.5,0.1,22.5,10.2,22.5,22.7c-0.1,12.5-10.2,22.5-22.7,22.4c-12.5-0.1-22.5-10.2-22.5-22.7
				C5148.7-882.1,5158.9-892.1,5171.3-892.1 M5171.4-900.7c-17.2-0.1-31.3,13.8-31.4,31.1c-0.1,17.2,13.8,31.3,31.1,31.4
				c17.2,0.1,31.3-13.8,31.4-31.1C5202.5-886.6,5188.6-900.6,5171.4-900.7L5171.4-900.7z"/>
		</g>
		<g>
			
				<ellipse transform="matrix(5.099440e-03 -1 1 5.099440e-03 -1184.8942 4421.0107)" class="st3" cx="1629.4" cy="2806" rx="13.9" ry="13.9"/>
			<path class="st3" d="M1629.4,2792.1c7.7,0,13.9,6.3,13.9,14c0,7.7-6.3,13.9-14,13.9c-7.7,0-13.9-6.3-13.9-14
				C1615.5,2798.2,1621.7,2792,1629.4,2792.1 M1629.5,2783.4c-12.4-0.1-22.6,10-22.7,22.5c-0.1,12.4,10,22.6,22.5,22.7
				c12.4,0.1,22.6-10,22.7-22.5C1652,2793.6,1641.9,2783.5,1629.5,2783.4L1629.5,2783.4z"/>
		</g>
		<g>
			
				<ellipse transform="matrix(5.094409e-03 -1 1 5.094409e-03 -1091.7386 4847.6289)" class="st3" cx="1890.3" cy="2972.5" rx="19.3" ry="19.3"/>
			<path class="st3" d="M1890.4,2953.2c10.6,0.1,19.2,8.7,19.2,19.4c-0.1,10.6-8.7,19.2-19.4,19.2c-10.6-0.1-19.2-8.7-19.2-19.4
				C1871.1,2961.7,1879.8,2953.1,1890.4,2953.2 M1890.5,2944.5c-15.4-0.1-28,12.4-28.1,27.8c-0.1,15.4,12.4,28,27.8,28.1
				s28-12.4,28.1-27.8C1918.3,2957.2,1905.9,2944.6,1890.5,2944.5L1890.5,2944.5z"/>
		</g>
		<g>
			
				<ellipse transform="matrix(5.100849e-03 -1 1 5.100849e-03 4732.4307 6126.2778)" class="st3" cx="5445" cy="684.8" rx="16.7" ry="16.7"/>
			<path class="st3" d="M5445.1,668.1c9.2,0,16.7,7.6,16.6,16.8s-7.6,16.7-16.8,16.6c-9.2,0-16.7-7.6-16.6-16.8
				S5435.9,668.1,5445.1,668.1 M5445.1,659.4c-14-0.1-25.4,11.3-25.5,25.2c-0.1,14,11.3,25.4,25.2,25.5c14,0.1,25.4-11.3,25.5-25.2
				C5470.5,671,5459.1,659.5,5445.1,659.4L5445.1,659.4z"/>
		</g>
		<g>
			
				<ellipse transform="matrix(5.098610e-03 -1 1 5.098610e-03 3205.6042 5438.2827)" class="st3" cx="4335.8" cy="1108.1" rx="28.7" ry="28.7"/>
			<path class="st3" d="M4336,1079.5c15.8,0.1,28.6,13,28.5,28.8c-0.1,15.8-13,28.6-28.8,28.5c-15.8-0.1-28.6-13-28.5-28.8
				C4307.3,1092.2,4320.2,1079.4,4336,1079.5 M4336,1070.8c-20.6-0.1-37.4,16.6-37.5,37.1c-0.1,20.6,16.6,37.4,37.1,37.5
				s37.4-16.6,37.5-37.1C4373.3,1087.8,4356.6,1070.9,4336,1070.8L4336,1070.8z"/>
		</g>
		<g>
			
				<ellipse transform="matrix(5.108298e-03 -1 1 5.108298e-03 3752.6375 5648.8335)" class="st3" cx="4715.2" cy="938.5" rx="12.3" ry="12.3"/>
			<path class="st3" d="M4715.3,926.2c6.8,0,12.2,5.6,12.2,12.3c0,6.8-5.6,12.2-12.3,12.2c-6.8,0-12.2-5.6-12.2-12.3
				C4703,931.6,4708.5,926.2,4715.3,926.2 M4715.3,917.6c-11.5-0.1-21,9.3-21,20.8c-0.1,11.5,9.3,21,20.8,21
				c11.5,0.1,21-9.3,21-20.8C4736.2,927.1,4726.8,917.6,4715.3,917.6L4715.3,917.6z"/>
		</g>
		<g>
			
				<ellipse transform="matrix(5.109470e-03 -1 1 5.109470e-03 4366.4204 5664.1089)" class="st3" cx="5029.8" cy="637.7" rx="28.2" ry="28.2"/>
			<path class="st3" d="M5029.9,609.4c15.6,0.1,28.2,12.8,28.1,28.4c-0.1,15.6-12.8,28.2-28.4,28.1c-15.6-0.1-28.2-12.8-28.1-28.4
				C5001.6,621.9,5014.3,609.3,5029.9,609.4 M5030,600.8c-20.3-0.1-37,16.4-37.1,36.7c-0.1,20.3,16.4,37,36.7,37.1
				c20.3,0.1,37-16.4,37.1-36.7C5066.8,617.5,5050.3,600.9,5030,600.8L5030,600.8z"/>
		</g>
		<g>
			
				<ellipse transform="matrix(5.096374e-03 -1 1 5.096374e-03 5744.1694 4290.4551)" class="st3" cx="5028.3" cy="-741.5" rx="17.6" ry="17.6"/>
			<path class="st3" d="M5028.4-759.2c9.7,0,17.6,8,17.6,17.7s-8,17.6-17.7,17.6c-9.7,0-17.6-8-17.6-17.7
				C5010.7-751.4,5018.6-759.2,5028.4-759.2 M5028.4-767.8c-14.5-0.1-26.4,11.7-26.4,26.2c-0.1,14.5,11.7,26.4,26.2,26.4
				c14.5,0.1,26.4-11.7,26.4-26.2C5054.6-755.9,5042.9-767.8,5028.4-767.8L5028.4-767.8z"/>
		</g>
		<g>
			
				<ellipse transform="matrix(5.094877e-03 -1 1 5.094877e-03 1920.4561 5543.3174)" class="st3" cx="3746" cy="1806.5" rx="25.5" ry="25.5"/>
			<path class="st3" d="M3746.2,1781c14.1,0.1,25.5,11.6,25.4,25.7c-0.1,14.1-11.6,25.5-25.7,25.4c-14.1-0.1-25.5-11.6-25.4-25.7
				C3720.6,1792.3,3732.1,1780.9,3746.2,1781 M3746.2,1772.4c-18.8-0.1-34.3,15.2-34.3,34c-0.1,18.8,15.2,34.3,34,34.3
				c18.8,0.1,34.3-15.2,34.3-34C3780.3,1787.9,3765.1,1772.4,3746.2,1772.4L3746.2,1772.4z"/>
		</g>
		<g>
			
				<ellipse transform="matrix(5.089956e-03 -1 1 5.089956e-03 1303.1172 6934.4492)" class="st3" cx="4136.5" cy="2812.3" rx="21.9" ry="21.9"/>
			<path class="st3" d="M4136.6,2790.4c12.1,0.1,21.9,9.9,21.8,22c-0.1,12.1-9.9,21.9-22,21.8c-12.1-0.1-21.9-9.9-21.8-22
				C4114.6,2800.1,4124.5,2790.4,4136.6,2790.4 M4136.6,2781.8c-16.9-0.1-30.6,13.6-30.7,30.4c-0.1,16.9,13.6,30.6,30.4,30.7
				c16.9,0.1,30.6-13.6,30.7-30.4C4167.1,2795.6,4153.5,2781.9,4136.6,2781.8L4136.6,2781.8z"/>
		</g>
		<g>
			
				<ellipse transform="matrix(5.109257e-03 -1 1 5.109257e-03 1475.7681 7299.5181)" class="st3" cx="4406.3" cy="2908.1" rx="28.4" ry="28.4"/>
			<path class="st3" d="M4406.5,2879.7c15.7,0.1,28.4,12.9,28.3,28.6c-0.1,15.7-12.9,28.4-28.6,28.3c-15.7-0.1-28.4-12.9-28.3-28.6
				C4378,2892.3,4390.8,2879.6,4406.5,2879.7 M4406.5,2871c-20.4-0.1-37.2,16.4-37.3,36.9c-0.1,20.4,16.4,37.2,36.9,37.3
				c20.4,0.1,37.2-16.4,37.3-36.9C4443.5,2887.8,4427,2871.1,4406.5,2871L4406.5,2871z"/>
		</g>
		<g>
			
				<ellipse transform="matrix(5.100348e-03 -1 1 5.100348e-03 2160.2314 6873.4155)" class="st3" cx="4534.4" cy="2351.1" rx="15.9" ry="15.9"/>
			<path class="st3" d="M4534.5,2335.2c8.8,0,15.9,7.2,15.8,16c0,8.8-7.2,15.9-16,15.8c-8.8,0-15.9-7.2-15.8-16
				C4518.5,2342.2,4525.7,2335.1,4534.5,2335.2 M4534.5,2326.5c-13.5-0.1-24.6,10.9-24.7,24.4c-0.1,13.5,10.9,24.6,24.4,24.7
				c13.5,0.1,24.6-10.9,24.7-24.4C4559,2337.6,4548.1,2326.6,4534.5,2326.5L4534.5,2326.5z"/>
		</g>
		<g>
			
				<ellipse transform="matrix(5.104418e-03 -1 1 5.104418e-03 2969.9927 7135.125)" class="st3" cx="5070.8" cy="2075" rx="30.8" ry="30.8"/>
			<path class="st3" d="M5071,2044.2c17,0.1,30.7,13.9,30.6,31c-0.1,17-13.9,30.7-31,30.6c-17-0.1-30.7-13.9-30.6-31
				C5040.1,2057.8,5054,2044.1,5071,2044.2 M5071,2035.5c-21.8-0.1-39.5,17.5-39.7,39.3c-0.1,21.8,17.5,39.5,39.3,39.7
				c21.8,0.1,39.5-17.5,39.7-39.3C5110.4,2053.4,5092.8,2035.6,5071,2035.5L5071,2035.5z"/>
		</g>
		<g>
			
				<ellipse transform="matrix(5.095104e-03 -1 1 5.095104e-03 -1298.8975 3947.3621)" class="st3" cx="1334.3" cy="2626.4" rx="12.7" ry="12.7"/>
			<path class="st3" d="M1334.4,2613.8c7,0,12.6,5.7,12.6,12.7c0,7-5.7,12.6-12.7,12.6c-7,0-12.6-5.7-12.6-12.7
				C1321.7,2619.4,1327.4,2613.7,1334.4,2613.8 M1334.4,2605.1c-11.8-0.1-21.4,9.5-21.4,21.2c-0.1,11.8,9.5,21.4,21.2,21.4
				c11.8,0.1,21.4-9.5,21.4-21.2C1355.7,2614.8,1346.2,2605.2,1334.4,2605.1L1334.4,2605.1z"/>
		</g>
		<g>
			
				<ellipse transform="matrix(5.108519e-03 -1 1 5.108519e-03 -329.0146 4203.4746)" class="st3" cx="1948" cy="2267.1" rx="20.5" ry="20.5"/>
			<path class="st3" d="M1948.1,2246.6c11.3,0.1,20.4,9.3,20.4,20.6c-0.1,11.3-9.3,20.4-20.6,20.4c-11.3-0.1-20.4-9.3-20.4-20.6
				C1927.6,2255.7,1936.8,2246.5,1948.1,2246.6 M1948.1,2237.9c-16.1-0.1-29.2,12.9-29.3,29c-0.1,16.1,12.9,29.2,29,29.3
				s29.2-12.9,29.3-29C1977.2,2251.2,1964.2,2238,1948.1,2237.9L1948.1,2237.9z"/>
		</g>
		<g>
			
				<ellipse transform="matrix(5.106729e-03 -1 1 5.106729e-03 2159.7 4113.2363)" class="st3" cx="3147" cy="971.2" rx="12.4" ry="12.4"/>
			<path class="st3" d="M3147.1,958.9c6.8,0,12.3,5.6,12.3,12.4c0,6.8-5.6,12.3-12.4,12.3c-6.8,0-12.3-5.6-12.3-12.4
				C3134.7,964.3,3140.2,958.8,3147.1,958.9 M3147.1,950.2c-11.6-0.1-21.1,9.3-21.1,20.9c-0.1,11.6,9.3,21.1,20.9,21.1
				c11.6,0.1,21.1-9.3,21.1-20.9C3168.1,959.8,3158.7,950.3,3147.1,950.2L3147.1,950.2z"/>
		</g>
		<g>
			
				<ellipse transform="matrix(5.101724e-03 -1 1 5.101724e-03 2363.4119 5354.9487)" class="st3" cx="3872.9" cy="1489.7" rx="28.2" ry="28.2"/>
			<path class="st3" d="M3873,1461.5c15.6,0.1,28.1,12.8,28.1,28.3c-0.1,15.6-12.8,28.1-28.3,28.1c-15.6-0.1-28.1-12.8-28.1-28.3
				C3844.8,1474,3857.4,1461.4,3873,1461.5 M3873.1,1452.9c-20.3-0.1-36.9,16.3-37,36.7c-0.1,20.3,16.3,36.9,36.7,37
				c20.3,0.1,36.9-16.3,37-36.7C3909.8,1469.6,3893.4,1453,3873.1,1452.9L3873.1,1452.9z"/>
		</g>
		<g>
			
				<ellipse transform="matrix(5.080402e-03 -1 1 5.080402e-03 1753.0347 4868.7891)" class="st3" cx="3323.3" cy="1553.4" rx="14.1" ry="14.1"/>
			<path class="st3" d="M3323.4,1539.3c7.8,0,14,6.4,14,14.1c0,7.8-6.4,14-14.1,14s-14-6.4-14-14.1
				C3309.3,1545.6,3315.6,1539.3,3323.4,1539.3 M3323.4,1530.7c-12.5-0.1-22.8,10.1-22.8,22.6c-0.1,12.5,10.1,22.8,22.6,22.8
				c12.5,0.1,22.8-10.1,22.8-22.6C3346.1,1541,3336,1530.8,3323.4,1530.7L3323.4,1530.7z"/>
		</g>
		<g>
			
				<ellipse transform="matrix(5.103602e-03 -1 1 5.103602e-03 1667.705 4997.7822)" class="st3" cx="3345.5" cy="1660.8" rx="15.9" ry="15.9"/>
			<path class="st3" d="M3345.6,1644.9c8.8,0,15.9,7.2,15.8,16c0,8.8-7.2,15.9-16,15.8c-8.8,0-15.9-7.2-15.8-16
				C3329.7,1651.9,3336.8,1644.8,3345.6,1644.9 M3345.7,1636.2c-13.5-0.1-24.6,10.9-24.7,24.4s10.9,24.6,24.4,24.7
				c13.5,0.1,24.6-10.9,24.7-24.4S3359.2,1636.3,3345.7,1636.2L3345.7,1636.2z"/>
		</g>
		<g>
			
				<ellipse transform="matrix(5.112749e-03 -1 1 5.112749e-03 1728.6528 5439.1392)" class="st3" cx="3597.8" cy="1850.8" rx="12.4" ry="12.4"/>
			<path class="st3" d="M3597.9,1838.4c6.9,0,12.4,5.6,12.4,12.5c0,6.9-5.6,12.4-12.5,12.4c-6.9,0-12.4-5.6-12.4-12.5
				C3585.4,1843.9,3591,1838.3,3597.9,1838.4 M3597.9,1829.7c-11.6-0.1-21.1,9.4-21.2,21c-0.1,11.6,9.4,21.1,21,21.2
				c11.6,0.1,21.1-9.4,21.2-21C3619,1839.3,3609.6,1829.8,3597.9,1829.7L3597.9,1829.7z"/>
		</g>
		<g>
			
				<ellipse transform="matrix(5.113933e-03 -1 1 5.113933e-03 2906.0078 6634.6738)" class="st3" cx="4787.3" cy="1856.9" rx="21.6" ry="21.6"/>
			<path class="st3" d="M4787.5,1835.2c11.9,0.1,21.6,9.8,21.5,21.7c-0.1,11.9-9.8,21.6-21.7,21.5c-11.9-0.1-21.6-9.8-21.5-21.7
				C4765.8,1844.8,4775.5,1835.2,4787.5,1835.2 M4787.5,1826.6c-16.7-0.1-30.4,13.4-30.4,30.1c-0.1,16.7,13.4,30.4,30.1,30.4
				c16.7,0.1,30.4-13.4,30.4-30.1C4817.7,1840.3,4804.2,1826.7,4787.5,1826.6L4787.5,1826.6z"/>
		</g>
		<g>
			
				<ellipse transform="matrix(5.116255e-03 -1 1 5.116255e-03 4069.5576 5962.0542)" class="st3" cx="5031.1" cy="935.8" rx="24.9" ry="24.9"/>
			<path class="st3" d="M5031.2,910.9c13.7,0.1,24.8,11.3,24.7,25c-0.1,13.7-11.3,24.8-25,24.7c-13.7-0.1-24.8-11.3-24.7-25
				C5006.3,921.9,5017.5,910.9,5031.2,910.9 M5031.3,902.3c-18.5-0.1-33.6,14.9-33.7,33.4c-0.1,18.5,14.9,33.6,33.4,33.7
				c18.5,0.1,33.6-14.9,33.7-33.4C5064.7,917.5,5049.8,902.4,5031.3,902.3L5031.3,902.3z"/>
		</g>
		<g>
			
				<ellipse transform="matrix(5.094125e-03 -1 1 5.094125e-03 -428.5868 4555.1284)" class="st3" cx="2074.9" cy="2493" rx="27" ry="27"/>
			<path class="st3" d="M2075,2466c14.9,0.1,26.9,12.2,26.8,27.1c-0.1,14.9-12.2,26.9-27.1,26.8c-14.9-0.1-26.9-12.2-26.8-27.1
				C2048,2477.9,2060.1,2465.9,2075,2466 M2075.1,2457.3c-19.6-0.1-35.7,15.8-35.8,35.4c-0.1,19.6,15.8,35.7,35.4,35.8
				c19.6,0.1,35.7-15.8,35.8-35.4C2110.6,2473.5,2094.7,2457.4,2075.1,2457.3L2075.1,2457.3z"/>
		</g>
		<g>
			
				<ellipse transform="matrix(5.105760e-03 -1 1 5.105760e-03 123.2136 4507.4521)" class="st3" cx="2326.9" cy="2191.8" rx="15.5" ry="15.5"/>
			<path class="st3" d="M2326.9,2176.3c8.6,0,15.5,7,15.5,15.6c0,8.6-7,15.5-15.6,15.5c-8.6,0-15.5-7-15.5-15.6
				C2311.4,2183.1,2318.4,2176.2,2326.9,2176.3 M2327,2167.6c-13.3-0.1-24.2,10.7-24.3,24.1c-0.1,13.3,10.7,24.2,24.1,24.3
				c13.3,0.1,24.2-10.7,24.3-24.1C2351.1,2178.6,2340.3,2167.7,2327,2167.6L2327,2167.6z"/>
		</g>
		<g>
			
				<ellipse transform="matrix(5.100914e-03 -1 1 5.100914e-03 -317.3359 5651.2192)" class="st3" cx="2681.4" cy="2985.1" rx="24.4" ry="24.4"/>
			<path class="st3" d="M2681.5,2960.7c13.5,0.1,24.3,11.1,24.3,24.5c-0.1,13.5-11,24.3-24.5,24.3c-13.5-0.1-24.3-11.1-24.3-24.5
				C2657.1,2971.5,2668,2960.6,2681.5,2960.7 M2681.6,2952c-18.2-0.1-33.1,14.7-33.2,32.9c-0.1,18.2,14.7,33.1,32.9,33.2
				c18.2,0.1,33.1-14.7,33.2-32.9C2714.5,2967,2699.8,2952.1,2681.6,2952L2681.6,2952z"/>
		</g>
		<g>
			
				<ellipse transform="matrix(5.113128e-03 -1 1 5.113128e-03 620.4224 5003.7134)" class="st3" cx="2824.9" cy="2190.1" rx="25.5" ry="25.5"/>
			<path class="st3" d="M2825,2164.5c14.1,0.1,25.5,11.6,25.4,25.6c-0.1,14.1-11.6,25.5-25.6,25.4c-14.1-0.1-25.5-11.6-25.4-25.6
				C2799.4,2175.8,2810.9,2164.5,2825,2164.5 M2825.1,2155.9c-18.8-0.1-34.3,15.2-34.3,34c-0.1,18.8,15.2,34.3,34,34.3
				s34.3-15.2,34.3-34C2859.2,2171.4,2843.9,2156,2825.1,2155.9L2825.1,2155.9z"/>
		</g>
		<g>
			
				<ellipse transform="matrix(5.116135e-03 -1 1 5.116135e-03 1009.3201 6079.9087)" class="st3" cx="3560.2" cy="2532.7" rx="22.3" ry="22.3"/>
			<path class="st3" d="M3560.3,2510.4c12.3,0.1,22.2,10.1,22.1,22.4c-0.1,12.3-10.1,22.2-22.4,22.1c-12.3-0.1-22.2-10.1-22.1-22.4
				C3538,2520.3,3548,2510.4,3560.3,2510.4 M3560.4,2501.8c-17-0.1-31,13.7-31.1,30.8c-0.1,17,13.7,31,30.8,31.1
				c17,0.1,31-13.7,31.1-30.8C3591.2,2515.8,3577.4,2501.9,3560.4,2501.8L3560.4,2501.8z"/>
		</g>
		<g>
			
				<ellipse transform="matrix(5.107733e-03 -1 1 5.107733e-03 969.4001 4896.6938)" class="st3" cx="2945.6" cy="1961.2" rx="16.3" ry="16.3"/>
			<path class="st3" d="M2945.7,1944.8c9,0,16.3,7.4,16.3,16.4c0,9-7.4,16.3-16.4,16.3c-9,0-16.3-7.4-16.3-16.4
				C2929.3,1952.1,2936.6,1944.8,2945.7,1944.8 M2945.7,1936.2c-13.8-0.1-25.1,11.1-25.1,24.9s11.1,25.1,24.9,25.1
				c13.8,0.1,25.1-11.1,25.1-24.9C2970.6,1947.5,2959.5,1936.2,2945.7,1936.2L2945.7,1936.2z"/>
		</g>
		<g>
			
				<ellipse transform="matrix(5.095595e-03 -1 1 5.095595e-03 2736.5452 3776.1921)" class="st3" cx="3266" cy="512.8" rx="19.5" ry="19.5"/>
			<path class="st3" d="M3266.1,493.3c10.8,0.1,19.5,8.8,19.4,19.6c-0.1,10.8-8.9,19.5-19.6,19.4c-10.8-0.1-19.5-8.8-19.4-19.6
				C3246.5,501.9,3255.3,493.2,3266.1,493.3 M3266.2,484.6c-15.5-0.1-28.3,12.5-28.3,28.1s12.5,28.3,28.1,28.3
				c15.5,0.1,28.3-12.5,28.3-28.1C3294.3,497.4,3281.7,484.7,3266.2,484.6L3266.2,484.6z"/>
		</g>
		<g>
			
				<ellipse transform="matrix(5.081719e-03 -1 1 5.081719e-03 3083.5913 4426.0708)" class="st3" cx="3766.1" cy="663.4" rx="14.5" ry="14.5"/>
			<path class="st3" d="M3766.2,648.9c8,0,14.5,6.6,14.4,14.6c0,8-6.6,14.5-14.6,14.4c-8,0-14.5-6.6-14.4-14.6
				C3751.6,655.3,3758.2,648.8,3766.2,648.9 M3766.2,640.2c-12.8-0.1-23.2,10.3-23.3,23.1c-0.1,12.8,10.3,23.2,23.1,23.3
				c12.8,0.1,23.2-10.3,23.3-23.1C3789.3,650.7,3779,640.3,3766.2,640.2L3766.2,640.2z"/>
		</g>
		<g>
			
				<ellipse transform="matrix(5.116351e-03 -1 1 5.116351e-03 4406.8735 3212.9028)" class="st3" cx="3818.1" cy="-608.3" rx="23.1" ry="23.1"/>
			<path class="st3" d="M3818.2-631.4c12.7,0.1,23,10.4,23,23.2c-0.1,12.7-10.4,23-23.2,23c-12.7-0.1-23-10.4-23-23.2
				C3795.1-621.1,3805.5-631.4,3818.2-631.4 M3818.3-640c-17.5-0.1-31.8,14.1-31.9,31.6c-0.1,17.5,14.1,31.8,31.6,31.9
				c17.5,0.1,31.8-14.1,31.9-31.6C3849.9-625.6,3835.8-639.9,3818.3-640L3818.3-640z"/>
		</g>
		<g>
			
				<ellipse transform="matrix(5.105061e-03 -1 1 5.105061e-03 3567.8813 3943.4043)" class="st3" cx="3765.7" cy="178.6" rx="31.2" ry="31.2"/>
			<path class="st3" d="M3765.9,147.4c17.3,0.1,31.2,14.2,31.1,31.4c-0.1,17.3-14.2,31.2-31.4,31.1c-17.3-0.1-31.2-14.2-31.1-31.4
				C3734.6,161.2,3748.6,147.3,3765.9,147.4 M3765.9,138.7c-22-0.1-40,17.7-40.1,39.7c-0.1,22,17.7,40,39.7,40.1
				c22,0.1,40-17.7,40.1-39.7C3805.8,156.8,3787.9,138.8,3765.9,138.7L3765.9,138.7z"/>
		</g>
		<g>
			
				<ellipse transform="matrix(5.116871e-03 -1 1 5.116871e-03 3799.906 4700.8022)" class="st3" cx="4262.4" cy="440.7" rx="15.9" ry="15.9"/>
			<path class="st3" d="M4262.5,424.8c8.8,0,15.9,7.2,15.9,16c0,8.8-7.2,15.9-16,15.9c-8.8,0-15.9-7.2-15.9-16
				S4253.7,424.7,4262.5,424.8 M4262.5,416.1c-13.6-0.1-24.7,10.9-24.7,24.5c-0.1,13.6,10.9,24.7,24.5,24.7
				c13.6,0.1,24.7-10.9,24.7-24.5C4287.1,427.3,4276.1,416.2,4262.5,416.1L4262.5,416.1z"/>
		</g>
		<g>
			
				<ellipse transform="matrix(5.096535e-03 -1 1 5.096535e-03 4547.896 3485.3716)" class="st3" cx="4025.5" cy="-542.9" rx="17.7" ry="17.7"/>
			<path class="st3" d="M4025.6-560.6c9.8,0,17.7,8,17.6,17.8c-0.1,9.8-8,17.7-17.8,17.6c-9.8,0-17.7-8-17.6-17.8
				C4007.9-552.8,4015.8-560.7,4025.6-560.6 M4025.7-569.3c-14.5-0.1-26.4,11.7-26.5,26.3c-0.1,14.5,11.7,26.4,26.3,26.5
				c14.6,0.1,26.4-11.7,26.5-26.3C4052-557.3,4040.2-569.2,4025.7-569.3L4025.7-569.3z"/>
		</g>
		<g>
			
				<ellipse transform="matrix(5.120859e-03 -1 1 5.120859e-03 2175.4543 7889.2935)" class="st3" cx="5052.6" cy="2851.3" rx="16.6" ry="16.6"/>
			<path class="st3" d="M5052.7,2834.8c9.1,0,16.5,7.5,16.5,16.7c0,9.2-7.5,16.5-16.7,16.5c-9.2,0-16.5-7.5-16.5-16.7
				C5036.1,2842.1,5043.6,2834.7,5052.7,2834.8 M5052.8,2826.1c-13.9-0.1-25.3,11.2-25.4,25.1c-0.1,13.9,11.2,25.3,25.1,25.4
				s25.3-11.2,25.4-25.1C5077.9,2837.6,5066.7,2826.2,5052.8,2826.1L5052.8,2826.1z"/>
		</g>
		<g>
			
				<ellipse transform="matrix(5.098324e-03 -1 1 5.098324e-03 3118.9331 7394.1436)" class="st3" cx="5275.4" cy="2129.6" rx="20.6" ry="20.6"/>
			<path class="st3" d="M5275.5,2109c11.4,0.1,20.6,9.3,20.5,20.7c-0.1,11.4-9.3,20.6-20.7,20.5c-11.4-0.1-20.6-9.3-20.5-20.7
				S5264.2,2109,5275.5,2109 M5275.6,2100.4c-16.1-0.1-29.3,13-29.4,29.1s13,29.3,29.1,29.4c16.1,0.1,29.3-13,29.4-29.1
				C5304.8,2113.6,5291.7,2100.4,5275.6,2100.4L5275.6,2100.4z"/>
		</g>
	</g>
</g>
<text transform="matrix(1 0 0 1 462.9385 620.3926)"><tspan x="0" y="0" class="st4 st5">Welcome </tspan><tspan x="-163.6" y="565.9" class="st4 st5">to ScraWeb</tspan></text>
<text transform="matrix(1 0 0 1 805.0381 1454.1543)" class="st6 st7">we&apos;ve all been there</text>
</svg>
